<svg xmlns="http://www.w3.org/2000/svg" viewBox="0 0 640 420" role="img" aria-labelledby="t d">
  <title id="t">F9A-B _ LED Mn:</title>
  <desc id="d">�b;�� 16 F>�� 6 FK>�(
��r</desc>
  <defs>
    <radialGradient id="cage" cx="50%" cy="48%" r="48%">
      <stop offset="0%" stop-color="#1e293b"/>
      <stop offset="100%" stop-color="#0f172a"/>
    </radialGradient>
  </defs>
  <rect width="640" height="420" fill="#0b1220"/>
  <text x="32" y="36" fill="#e2e8f0" font-family="Segoe UI, Microsoft JhengHei, sans-serif" font-size="20" font-weight="700">F9A-B LED Mn:	</text>
  <text x="32" y="62" fill="#94a3b8" font-family="Segoe UI, Microsoft JhengHei, sans-serif" font-size="13">�� e16 � >� e6 � K>�
��r</text>

  <!-- cage -->
  <circle cx="250" cy="230" r="118" fill="url(#cage)" stroke="#334155" stroke-width="3"/>
  <circle cx="250" cy="230" r="98" fill="none" stroke="#475569" stroke-width="1.5" stroke-dasharray="6 8"/>
  <text x="250" y="226" text-anchor="middle" fill="#cbd5e1" font-family="Segoe UI, Microsoft JhengHei, sans-serif" font-size="15" font-weight="700">F</text>
  <text x="250" y="248" text-anchor="middle" fill="#64748b" font-family="Segoe UI, Microsoft JhengHei, sans-serif" font-size="12">_�(g</text>

  <!-- ring LEDs (16) -->
  <g id="ring">
    <circle cx="250" cy="112" r="8" fill="#ef4444"/>
    <circle cx="308" cy="128" r="8" fill="#ef4444"/>
    <circle cx="348" cy="172" r="8" fill="#ef4444"/>
    <circle cx="362" cy="230" r="8" fill="#ef4444"/>
    <circle cx="348" cy="288" r="8" fill="#ef4444"/>
    <circle cx="308" cy="332" r="8" fill="#ef4444"/>
    <circle cx="250" cy="348" r="8" fill="#ef4444"/>
    <circle cx="192" cy="332" r="8" fill="#ef4444"/>
    <circle cx="152" cy="288" r="8" fill="#ef4444"/>
    <circle cx="138" cy="230" r="8" fill="#ef4444"/>
    <circle cx="152" cy="172" r="8" fill="#ef4444"/>
    <circle cx="192" cy="128" r="8" fill="#ef4444"/>
    <circle cx="220" cy="118" r="6" fill="#f87171"/>
    <circle cx="280" cy="118" r="6" fill="#f87171"/>
    <circle cx="330" cy="150" r="6" fill="#f87171"/>
    <circle cx="170" cy="150" r="6" fill="#f87171"/>
  </g>

  <!-- tail LEDs (6) -->
  <g id="tail">
    <rect x="388" y="200" width="14" height="14" rx="3" fill="#3b82f6"/>
    <rect x="410" y="200" width="14" height="14" rx="3" fill="#3b82f6"/>
    <rect x="432" y="200" width="14" height="14" rx="3" fill="#3b82f6"/>
    <rect x="388" y="222" width="14" height="14" rx="3" fill="#3b82f6"/>
    <rect x="410" y="222" width="14" height="14" rx="3" fill="#3b82f6"/>
    <rect x="432" y="222" width="14" height="14" rx="3" fill="#3b82f6"/>
  </g>
  <path d="M368 230 H384" stroke="#64748b" stroke-width="2" marker-end="url(#arrow)"/>
  <defs>
    <marker id="arrow" markerWidth="8" markerHeight="8" refX="6" refY="3" orient="auto">
      <path d="M0,0 L6,3 L0,6 Z" fill="#64748b"/>
    </marker>
  </defs>

  <!-- legend -->
  <g font-family="Segoe UI, Microsoft JhengHei, sans-serif">
    <rect x="470" y="100" width="140" height="220" rx="12" fill="#111827" stroke="#334155"/>
    <circle cx="492" cy="132" r="7" fill="#ef4444"/>
    <text x="508" y="136" fill="#e2e8f0" font-size="13">�b;�</text>
    <text x="508" y="154" fill="#94a3b8" font-size="11">e16 � ,�r</text>
    <rect x="485" y="178" width="12" height="12" rx="2" fill="#3b82f6"/>
    <text x="508" y="188" fill="#e2e8f0" font-size="13">>�X%�</text>
    <text x="508" y="206" fill="#94a3b8" font-size="11">e6 � _�</text>
    <text x="485" y="240" fill="#fbbf24" font-size="12" font-weight="700">Ky�</text>
    <text x="485" y="260" fill="#cbd5e1" font-size="11">�K�></text>
    <text x="485" y="278" fill="#cbd5e1" font-size="11">͊K></text>
    <text x="485" y="302" fill="#64748b" font-size="10">: � ^��</text>
  </g>
</svg>
